G04*
G04 #@! TF.GenerationSoftware,Altium Limited,Altium Designer,21.8.1 (53)*
G04*
G04 Layer_Color=8388736*
%FSLAX43Y43*%
%MOMM*%
G71*
G04*
G04 #@! TF.SameCoordinates,52961A17-6BC2-4DDE-B822-5F8CA39096D4*
G04*
G04*
G04 #@! TF.FilePolarity,Negative*
G04*
G01*
G75*
%ADD20R,1.700X0.800*%
%ADD34R,2.743X0.853*%
G04:AMPARAMS|DCode=35|XSize=0.743mm|YSize=0.783mm|CornerRadius=0.169mm|HoleSize=0mm|Usage=FLASHONLY|Rotation=180.000|XOffset=0mm|YOffset=0mm|HoleType=Round|Shape=RoundedRectangle|*
%AMROUNDEDRECTD35*
21,1,0.743,0.445,0,0,180.0*
21,1,0.405,0.783,0,0,180.0*
1,1,0.338,-0.203,0.223*
1,1,0.338,0.203,0.223*
1,1,0.338,0.203,-0.223*
1,1,0.338,-0.203,-0.223*
%
%ADD35ROUNDEDRECTD35*%
G04:AMPARAMS|DCode=36|XSize=0.903mm|YSize=0.803mm|CornerRadius=0.177mm|HoleSize=0mm|Usage=FLASHONLY|Rotation=90.000|XOffset=0mm|YOffset=0mm|HoleType=Round|Shape=RoundedRectangle|*
%AMROUNDEDRECTD36*
21,1,0.903,0.450,0,0,90.0*
21,1,0.550,0.803,0,0,90.0*
1,1,0.353,0.225,0.275*
1,1,0.353,0.225,-0.275*
1,1,0.353,-0.225,-0.275*
1,1,0.353,-0.225,0.275*
%
%ADD36ROUNDEDRECTD36*%
G04:AMPARAMS|DCode=37|XSize=0.753mm|YSize=0.703mm|CornerRadius=0.164mm|HoleSize=0mm|Usage=FLASHONLY|Rotation=180.000|XOffset=0mm|YOffset=0mm|HoleType=Round|Shape=RoundedRectangle|*
%AMROUNDEDRECTD37*
21,1,0.753,0.375,0,0,180.0*
21,1,0.425,0.703,0,0,180.0*
1,1,0.328,-0.213,0.188*
1,1,0.328,0.213,0.188*
1,1,0.328,0.213,-0.188*
1,1,0.328,-0.213,-0.188*
%
%ADD37ROUNDEDRECTD37*%
%ADD38R,3.403X1.803*%
%ADD39R,2.903X2.803*%
%ADD40R,0.553X1.053*%
%ADD41R,1.003X0.553*%
%ADD42R,1.728X0.853*%
%ADD43R,2.603X3.303*%
%ADD44R,0.453X0.528*%
%ADD45R,0.528X0.453*%
G04:AMPARAMS|DCode=46|XSize=0.903mm|YSize=0.803mm|CornerRadius=0.177mm|HoleSize=0mm|Usage=FLASHONLY|Rotation=0.000|XOffset=0mm|YOffset=0mm|HoleType=Round|Shape=RoundedRectangle|*
%AMROUNDEDRECTD46*
21,1,0.903,0.450,0,0,0.0*
21,1,0.550,0.803,0,0,0.0*
1,1,0.353,0.275,-0.225*
1,1,0.353,-0.275,-0.225*
1,1,0.353,-0.275,0.225*
1,1,0.353,0.275,0.225*
%
%ADD46ROUNDEDRECTD46*%
G04:AMPARAMS|DCode=47|XSize=0.753mm|YSize=0.703mm|CornerRadius=0.164mm|HoleSize=0mm|Usage=FLASHONLY|Rotation=270.000|XOffset=0mm|YOffset=0mm|HoleType=Round|Shape=RoundedRectangle|*
%AMROUNDEDRECTD47*
21,1,0.753,0.375,0,0,270.0*
21,1,0.425,0.703,0,0,270.0*
1,1,0.328,-0.188,-0.213*
1,1,0.328,-0.188,0.213*
1,1,0.328,0.188,0.213*
1,1,0.328,0.188,-0.213*
%
%ADD47ROUNDEDRECTD47*%
G04:AMPARAMS|DCode=48|XSize=1.153mm|YSize=1.053mm|CornerRadius=0.208mm|HoleSize=0mm|Usage=FLASHONLY|Rotation=270.000|XOffset=0mm|YOffset=0mm|HoleType=Round|Shape=RoundedRectangle|*
%AMROUNDEDRECTD48*
21,1,1.153,0.638,0,0,270.0*
21,1,0.738,1.053,0,0,270.0*
1,1,0.416,-0.319,-0.369*
1,1,0.416,-0.319,0.369*
1,1,0.416,0.319,0.369*
1,1,0.416,0.319,-0.369*
%
%ADD48ROUNDEDRECTD48*%
G04:AMPARAMS|DCode=49|XSize=1.113mm|YSize=1.133mm|CornerRadius=0.215mm|HoleSize=0mm|Usage=FLASHONLY|Rotation=0.000|XOffset=0mm|YOffset=0mm|HoleType=Round|Shape=RoundedRectangle|*
%AMROUNDEDRECTD49*
21,1,1.113,0.703,0,0,0.0*
21,1,0.683,1.133,0,0,0.0*
1,1,0.431,0.341,-0.351*
1,1,0.431,-0.341,-0.351*
1,1,0.431,-0.341,0.351*
1,1,0.431,0.341,0.351*
%
%ADD49ROUNDEDRECTD49*%
G04:AMPARAMS|DCode=50|XSize=0.743mm|YSize=0.783mm|CornerRadius=0.169mm|HoleSize=0mm|Usage=FLASHONLY|Rotation=270.000|XOffset=0mm|YOffset=0mm|HoleType=Round|Shape=RoundedRectangle|*
%AMROUNDEDRECTD50*
21,1,0.743,0.445,0,0,270.0*
21,1,0.405,0.783,0,0,270.0*
1,1,0.338,-0.223,-0.203*
1,1,0.338,-0.223,0.203*
1,1,0.338,0.223,0.203*
1,1,0.338,0.223,-0.203*
%
%ADD50ROUNDEDRECTD50*%
G04:AMPARAMS|DCode=51|XSize=1.953mm|YSize=3.703mm|CornerRadius=0.758mm|HoleSize=0mm|Usage=FLASHONLY|Rotation=270.000|XOffset=0mm|YOffset=0mm|HoleType=Round|Shape=RoundedRectangle|*
%AMROUNDEDRECTD51*
21,1,1.953,2.188,0,0,270.0*
21,1,0.438,3.703,0,0,270.0*
1,1,1.516,-1.094,-0.219*
1,1,1.516,-1.094,0.219*
1,1,1.516,1.094,0.219*
1,1,1.516,1.094,-0.219*
%
%ADD51ROUNDEDRECTD51*%
G04:AMPARAMS|DCode=52|XSize=1.953mm|YSize=3.703mm|CornerRadius=0.758mm|HoleSize=0mm|Usage=FLASHONLY|Rotation=180.000|XOffset=0mm|YOffset=0mm|HoleType=Round|Shape=RoundedRectangle|*
%AMROUNDEDRECTD52*
21,1,1.953,2.188,0,0,180.0*
21,1,0.438,3.703,0,0,180.0*
1,1,1.516,-0.219,1.094*
1,1,1.516,0.219,1.094*
1,1,1.516,0.219,-1.094*
1,1,1.516,-0.219,-1.094*
%
%ADD52ROUNDEDRECTD52*%
%ADD53C,0.953*%
%ADD54C,0.703*%
D20*
X16129Y4345D02*
D03*
Y7745D02*
D03*
X19253Y4345D02*
D03*
Y7745D02*
D03*
D34*
X26246Y32581D02*
D03*
Y31581D02*
D03*
Y30581D02*
D03*
Y29581D02*
D03*
Y28581D02*
D03*
Y27581D02*
D03*
Y26581D02*
D03*
Y25581D02*
D03*
Y24581D02*
D03*
Y23581D02*
D03*
Y22581D02*
D03*
Y21581D02*
D03*
Y20581D02*
D03*
Y19581D02*
D03*
Y18581D02*
D03*
Y17581D02*
D03*
Y16581D02*
D03*
X7406D02*
D03*
Y17581D02*
D03*
Y18581D02*
D03*
Y19581D02*
D03*
Y20581D02*
D03*
Y21581D02*
D03*
Y22581D02*
D03*
Y23581D02*
D03*
Y24581D02*
D03*
Y25581D02*
D03*
Y26581D02*
D03*
Y27581D02*
D03*
Y28581D02*
D03*
Y29581D02*
D03*
Y30581D02*
D03*
Y31581D02*
D03*
Y32581D02*
D03*
D35*
X4826Y10532D02*
D03*
Y11312D02*
D03*
X23420Y13101D02*
D03*
Y12321D02*
D03*
X12072Y6341D02*
D03*
Y7121D02*
D03*
D36*
X5842Y11218D02*
D03*
Y10118D02*
D03*
X6096Y8297D02*
D03*
Y7197D02*
D03*
X4960Y6054D02*
D03*
Y7154D02*
D03*
D37*
X13215Y6281D02*
D03*
Y7181D02*
D03*
D38*
X21255Y11811D02*
D03*
X16255D02*
D03*
D39*
X26416Y11938D02*
D03*
D40*
X27666Y9963D02*
D03*
X27166D02*
D03*
X26666D02*
D03*
X26166D02*
D03*
X25666D02*
D03*
X25166D02*
D03*
Y13913D02*
D03*
X25666D02*
D03*
X26166D02*
D03*
X26666D02*
D03*
X27166D02*
D03*
X27666D02*
D03*
D41*
X24416Y10688D02*
D03*
Y11188D02*
D03*
Y11688D02*
D03*
Y12188D02*
D03*
Y12688D02*
D03*
Y13188D02*
D03*
X28416D02*
D03*
Y12688D02*
D03*
Y12188D02*
D03*
Y11688D02*
D03*
Y11188D02*
D03*
Y10688D02*
D03*
D42*
X7788Y13970D02*
D03*
Y12700D02*
D03*
Y11430D02*
D03*
Y10160D02*
D03*
X13212D02*
D03*
Y11430D02*
D03*
Y12700D02*
D03*
Y13970D02*
D03*
D43*
X10500Y12065D02*
D03*
D44*
X8401Y7232D02*
D03*
X8901D02*
D03*
X9401D02*
D03*
X9901D02*
D03*
Y4706D02*
D03*
X9401D02*
D03*
X8901D02*
D03*
X8401D02*
D03*
D45*
X10414Y6719D02*
D03*
Y6219D02*
D03*
Y5719D02*
D03*
Y5219D02*
D03*
X7888D02*
D03*
Y5719D02*
D03*
Y6219D02*
D03*
Y6719D02*
D03*
D46*
X22648Y4699D02*
D03*
X21548D02*
D03*
X22648Y5715D02*
D03*
X21548D02*
D03*
X22648Y6604D02*
D03*
X21548D02*
D03*
X29125Y7747D02*
D03*
X28025D02*
D03*
X29125Y8763D02*
D03*
X28025D02*
D03*
X22648Y7620D02*
D03*
X21548D02*
D03*
X28145Y15868D02*
D03*
X29245D02*
D03*
D47*
X5403Y22479D02*
D03*
X4503D02*
D03*
X5403Y21590D02*
D03*
X4503D02*
D03*
X12268Y4826D02*
D03*
X11368D02*
D03*
X29406Y14732D02*
D03*
X28506D02*
D03*
D48*
X22947Y9017D02*
D03*
X24297D02*
D03*
D49*
X24767Y7493D02*
D03*
X26287D02*
D03*
X24767Y6223D02*
D03*
X26287D02*
D03*
X24767Y4953D02*
D03*
X26287D02*
D03*
D50*
X24629Y14859D02*
D03*
X25409D02*
D03*
D51*
X31738Y20193D02*
D03*
Y6985D02*
D03*
Y26797D02*
D03*
Y24596D02*
D03*
Y9186D02*
D03*
Y13589D02*
D03*
Y11388D02*
D03*
Y22394D02*
D03*
Y15790D02*
D03*
Y17992D02*
D03*
X1917Y15790D02*
D03*
Y17992D02*
D03*
Y11388D02*
D03*
Y22394D02*
D03*
Y20193D02*
D03*
Y24596D02*
D03*
Y9186D02*
D03*
Y6985D02*
D03*
Y26797D02*
D03*
Y13589D02*
D03*
D52*
X17884Y1860D02*
D03*
X15682D02*
D03*
X22286D02*
D03*
X11280D02*
D03*
X13481D02*
D03*
X9078D02*
D03*
X24488D02*
D03*
X26689D02*
D03*
X6877D02*
D03*
X20085D02*
D03*
D53*
X24141Y15703D02*
D03*
X4826Y12319D02*
D03*
X9546Y22606D02*
D03*
X9779Y32385D02*
D03*
X23345Y10160D02*
D03*
X23876Y22606D02*
D03*
X23622Y32385D02*
D03*
X28252Y6139D02*
D03*
X13215Y4917D02*
D03*
X26970Y8765D02*
D03*
X12700Y8001D02*
D03*
X14949Y10196D02*
D03*
X23500Y13800D02*
D03*
X25955Y8716D02*
D03*
X20731Y9513D02*
D03*
X29210Y10033D02*
D03*
X23749Y17399D02*
D03*
X11049Y7112D02*
D03*
X27420Y14969D02*
D03*
X21699Y31355D02*
D03*
X14732Y13970D02*
D03*
X6985Y7366D02*
D03*
X14732Y17018D02*
D03*
D54*
X14351Y8128D02*
D03*
X28220Y22762D02*
D03*
Y21238D02*
D03*
Y19397D02*
D03*
X29337Y6223D02*
D03*
X9738Y10922D02*
D03*
X11262D02*
D03*
X9738Y12288D02*
D03*
X11262D02*
D03*
X17739Y13589D02*
D03*
X9738Y13653D02*
D03*
X11262D02*
D03*
X9738Y15045D02*
D03*
X11262D02*
D03*
X15961Y13589D02*
D03*
X16850D02*
D03*
X13104Y15045D02*
D03*
X16787Y15019D02*
D03*
X14945D02*
D03*
X20100Y13462D02*
D03*
X21803D02*
D03*
X20100Y15019D02*
D03*
X21803D02*
D03*
X18628D02*
D03*
X5842Y5207D02*
D03*
X7112Y4699D02*
D03*
X15875Y5488D02*
D03*
X17716D02*
D03*
X19558Y5461D02*
D03*
X18479Y6758D02*
D03*
X16637D02*
D03*
X20320Y6731D02*
D03*
X15113Y6758D02*
D03*
X14351Y5488D02*
D03*
X17907Y9017D02*
D03*
X19177Y10287D02*
D03*
X8367Y8407D02*
D03*
X9891D02*
D03*
M02*
