G04*
G04 #@! TF.GenerationSoftware,Altium Limited,Altium Designer,21.8.1 (53)*
G04*
G04 Layer_Color=16711935*
%FSLAX43Y43*%
%MOMM*%
G71*
G04*
G04 #@! TF.SameCoordinates,52961A17-6BC2-4DDE-B822-5F8CA39096D4*
G04*
G04*
G04 #@! TF.FilePolarity,Negative*
G04*
G01*
G75*
G04:AMPARAMS|DCode=51|XSize=1.953mm|YSize=3.703mm|CornerRadius=0.758mm|HoleSize=0mm|Usage=FLASHONLY|Rotation=270.000|XOffset=0mm|YOffset=0mm|HoleType=Round|Shape=RoundedRectangle|*
%AMROUNDEDRECTD51*
21,1,1.953,2.188,0,0,270.0*
21,1,0.438,3.703,0,0,270.0*
1,1,1.516,-1.094,-0.219*
1,1,1.516,-1.094,0.219*
1,1,1.516,1.094,0.219*
1,1,1.516,1.094,-0.219*
%
%ADD51ROUNDEDRECTD51*%
G04:AMPARAMS|DCode=52|XSize=1.953mm|YSize=3.703mm|CornerRadius=0.758mm|HoleSize=0mm|Usage=FLASHONLY|Rotation=180.000|XOffset=0mm|YOffset=0mm|HoleType=Round|Shape=RoundedRectangle|*
%AMROUNDEDRECTD52*
21,1,1.953,2.188,0,0,180.0*
21,1,0.438,3.703,0,0,180.0*
1,1,1.516,-0.219,1.094*
1,1,1.516,0.219,1.094*
1,1,1.516,0.219,-1.094*
1,1,1.516,-0.219,-1.094*
%
%ADD52ROUNDEDRECTD52*%
%ADD53C,0.953*%
%ADD54C,0.703*%
%ADD74C,0.803*%
D51*
X31738Y20193D02*
D03*
Y6985D02*
D03*
Y26797D02*
D03*
Y24596D02*
D03*
Y9186D02*
D03*
Y13589D02*
D03*
Y11388D02*
D03*
Y22394D02*
D03*
Y15790D02*
D03*
Y17992D02*
D03*
X1917Y15790D02*
D03*
Y17992D02*
D03*
Y11388D02*
D03*
Y22394D02*
D03*
Y20193D02*
D03*
Y24596D02*
D03*
Y9186D02*
D03*
Y6985D02*
D03*
Y26797D02*
D03*
Y13589D02*
D03*
D52*
X17884Y1860D02*
D03*
X15682D02*
D03*
X22286D02*
D03*
X11280D02*
D03*
X13481D02*
D03*
X9078D02*
D03*
X24488D02*
D03*
X26689D02*
D03*
X6877D02*
D03*
X20085D02*
D03*
D53*
X24141Y15703D02*
D03*
X4826Y12319D02*
D03*
X9546Y22606D02*
D03*
X9779Y32385D02*
D03*
X23345Y10160D02*
D03*
X23876Y22606D02*
D03*
X23622Y32385D02*
D03*
X28252Y6139D02*
D03*
X13215Y4917D02*
D03*
X26970Y8765D02*
D03*
X12700Y8001D02*
D03*
X14949Y10196D02*
D03*
X23500Y13800D02*
D03*
X25955Y8716D02*
D03*
X20731Y9513D02*
D03*
X29210Y10033D02*
D03*
X23749Y17399D02*
D03*
X11049Y7112D02*
D03*
X27420Y14969D02*
D03*
X21699Y31355D02*
D03*
X14732Y13970D02*
D03*
X6985Y7366D02*
D03*
X14732Y17018D02*
D03*
D54*
X14351Y8128D02*
D03*
X28220Y22762D02*
D03*
Y21238D02*
D03*
Y19397D02*
D03*
X29337Y6223D02*
D03*
X9738Y10922D02*
D03*
X11262D02*
D03*
X9738Y12288D02*
D03*
X11262D02*
D03*
X17739Y13589D02*
D03*
X9738Y13653D02*
D03*
X11262D02*
D03*
X9738Y15045D02*
D03*
X11262D02*
D03*
X15961Y13589D02*
D03*
X16850D02*
D03*
X13104Y15045D02*
D03*
X16787Y15019D02*
D03*
X14945D02*
D03*
X20100Y13462D02*
D03*
X21803D02*
D03*
X20100Y15019D02*
D03*
X21803D02*
D03*
X18628D02*
D03*
X5842Y5207D02*
D03*
X7112Y4699D02*
D03*
X15875Y5488D02*
D03*
X17716D02*
D03*
X19558Y5461D02*
D03*
X18479Y6758D02*
D03*
X16637D02*
D03*
X20320Y6731D02*
D03*
X15113Y6758D02*
D03*
X14351Y5488D02*
D03*
X17907Y9017D02*
D03*
X19177Y10287D02*
D03*
X8367Y8407D02*
D03*
X9891D02*
D03*
D74*
X29337Y1397D02*
D03*
X4191D02*
D03*
M02*
