G04*
G04 #@! TF.GenerationSoftware,Altium Limited,Altium Designer,21.8.1 (53)*
G04*
G04 Layer_Physical_Order=4*
G04 Layer_Color=16711680*
%FSLAX43Y43*%
%MOMM*%
G71*
G04*
G04 #@! TF.SameCoordinates,52961A17-6BC2-4DDE-B822-5F8CA39096D4*
G04*
G04*
G04 #@! TF.FilePolarity,Positive*
G04*
G01*
G75*
%ADD58C,0.381*%
%ADD59C,0.254*%
G04:AMPARAMS|DCode=62|XSize=1.75mm|YSize=3.5mm|CornerRadius=0.656mm|HoleSize=0mm|Usage=FLASHONLY|Rotation=270.000|XOffset=0mm|YOffset=0mm|HoleType=Round|Shape=RoundedRectangle|*
%AMROUNDEDRECTD62*
21,1,1.750,2.188,0,0,270.0*
21,1,0.438,3.500,0,0,270.0*
1,1,1.313,-1.094,-0.219*
1,1,1.313,-1.094,0.219*
1,1,1.313,1.094,0.219*
1,1,1.313,1.094,-0.219*
%
%ADD62ROUNDEDRECTD62*%
G04:AMPARAMS|DCode=63|XSize=1.75mm|YSize=3.5mm|CornerRadius=0.656mm|HoleSize=0mm|Usage=FLASHONLY|Rotation=180.000|XOffset=0mm|YOffset=0mm|HoleType=Round|Shape=RoundedRectangle|*
%AMROUNDEDRECTD63*
21,1,1.750,2.188,0,0,180.0*
21,1,0.438,3.500,0,0,180.0*
1,1,1.313,-0.219,1.094*
1,1,1.313,0.219,1.094*
1,1,1.313,0.219,-1.094*
1,1,1.313,-0.219,-1.094*
%
%ADD63ROUNDEDRECTD63*%
%ADD64C,0.750*%
%ADD65C,0.500*%
%ADD73C,0.600*%
G36*
X21695Y30980D02*
X21658Y30979D01*
X21622Y30975D01*
X21587Y30969D01*
X21554Y30961D01*
X21522Y30950D01*
X21491Y30936D01*
X21461Y30920D01*
X21433Y30901D01*
X21406Y30880D01*
X21380Y30856D01*
X21201Y31036D01*
X21224Y31062D01*
X21246Y31089D01*
X21264Y31117D01*
X21281Y31146D01*
X21294Y31177D01*
X21305Y31209D01*
X21314Y31243D01*
X21320Y31278D01*
X21323Y31314D01*
X21324Y31351D01*
X21695Y30980D01*
D02*
G37*
G36*
X3600Y21909D02*
X3592Y21888D01*
X3589Y21864D01*
X3592Y21838D01*
X3601Y21809D01*
X3616Y21779D01*
X3637Y21745D01*
X3664Y21709D01*
X3697Y21671D01*
X3735Y21631D01*
X3556Y21451D01*
X3515Y21490D01*
X3477Y21523D01*
X3441Y21550D01*
X3408Y21570D01*
X3377Y21586D01*
X3348Y21595D01*
X3322Y21598D01*
X3298Y21595D01*
X3277Y21586D01*
X3258Y21571D01*
X3615Y21928D01*
X3600Y21909D01*
D02*
G37*
G36*
X3632Y19839D02*
X3619Y19806D01*
X3616Y19769D01*
X3622Y19728D01*
X3638Y19683D01*
X3663Y19634D01*
X3697Y19581D01*
X3741Y19524D01*
X3794Y19463D01*
X3857Y19398D01*
X3587Y19128D01*
X3522Y19191D01*
X3404Y19288D01*
X3351Y19322D01*
X3302Y19347D01*
X3257Y19363D01*
X3216Y19369D01*
X3179Y19366D01*
X3146Y19353D01*
X3117Y19331D01*
X3654Y19868D01*
X3632Y19839D01*
D02*
G37*
G36*
Y17638D02*
X3619Y17605D01*
X3616Y17568D01*
X3622Y17527D01*
X3638Y17482D01*
X3663Y17433D01*
X3697Y17380D01*
X3741Y17323D01*
X3794Y17262D01*
X3857Y17196D01*
X3587Y16927D01*
X3522Y16990D01*
X3404Y17087D01*
X3351Y17121D01*
X3302Y17146D01*
X3257Y17162D01*
X3216Y17168D01*
X3179Y17165D01*
X3146Y17152D01*
X3117Y17130D01*
X3654Y17666D01*
X3632Y17638D01*
D02*
G37*
G36*
X24125Y17358D02*
X24128Y17322D01*
X24134Y17287D01*
X24143Y17254D01*
X24154Y17222D01*
X24167Y17191D01*
X24184Y17161D01*
X24202Y17133D01*
X24224Y17106D01*
X24247Y17080D01*
X24068Y16901D01*
X24042Y16924D01*
X24015Y16946D01*
X23987Y16964D01*
X23957Y16980D01*
X23926Y16994D01*
X23894Y17005D01*
X23861Y17014D01*
X23826Y17020D01*
X23790Y17023D01*
X23753Y17024D01*
X24124Y17395D01*
X24125Y17358D01*
D02*
G37*
G36*
X14464Y16756D02*
X14437Y16781D01*
X14409Y16804D01*
X14381Y16825D01*
X14351Y16842D01*
X14320Y16857D01*
X14289Y16869D01*
X14256Y16879D01*
X14223Y16886D01*
X14189Y16890D01*
X14154Y16891D01*
Y17145D01*
X14189Y17146D01*
X14223Y17150D01*
X14256Y17157D01*
X14289Y17167D01*
X14320Y17179D01*
X14351Y17194D01*
X14381Y17211D01*
X14409Y17232D01*
X14437Y17255D01*
X14464Y17281D01*
Y16756D01*
D02*
G37*
G36*
X14484Y14455D02*
X14600Y14355D01*
X14616Y14346D01*
X14629Y14339D01*
X14640Y14336D01*
X14649Y14336D01*
X14359Y14008D01*
X14358Y14015D01*
X14354Y14025D01*
X14346Y14037D01*
X14336Y14052D01*
X14305Y14090D01*
X14261Y14138D01*
X14204Y14196D01*
X14454Y14485D01*
X14484Y14455D01*
D02*
G37*
G36*
X29994Y13335D02*
X29992Y13359D01*
X29984Y13381D01*
X29971Y13400D01*
X29953Y13416D01*
X29929Y13430D01*
X29901Y13442D01*
X29867Y13451D01*
X29828Y13457D01*
X29783Y13461D01*
X29734Y13462D01*
Y13716D01*
X29783Y13717D01*
X29828Y13721D01*
X29867Y13727D01*
X29901Y13736D01*
X29929Y13748D01*
X29953Y13762D01*
X29971Y13778D01*
X29984Y13797D01*
X29992Y13819D01*
X29994Y13843D01*
Y13335D01*
D02*
G37*
G36*
X14707Y9909D02*
X14692Y9920D01*
X14673Y9931D01*
X14652Y9940D01*
X14628Y9948D01*
X14601Y9954D01*
X14571Y9960D01*
X14504Y9967D01*
X14466Y9969D01*
X14425Y9969D01*
X14382Y10351D01*
X14423Y10351D01*
X14495Y10358D01*
X14527Y10363D01*
X14556Y10371D01*
X14582Y10380D01*
X14605Y10390D01*
X14625Y10402D01*
X14643Y10416D01*
X14657Y10432D01*
X14707Y9909D01*
D02*
G37*
G36*
X20859Y10056D02*
X20864Y10022D01*
X20870Y9988D01*
X20880Y9956D01*
X20892Y9925D01*
X20907Y9894D01*
X20924Y9864D01*
X20945Y9836D01*
X20968Y9808D01*
X20994Y9781D01*
X20469D01*
X20494Y9808D01*
X20517Y9836D01*
X20538Y9864D01*
X20555Y9894D01*
X20570Y9925D01*
X20582Y9956D01*
X20592Y9988D01*
X20599Y10022D01*
X20603Y10056D01*
X20604Y10091D01*
X20858D01*
X20859Y10056D01*
D02*
G37*
G36*
X28942Y9771D02*
X28915Y9796D01*
X28887Y9819D01*
X28859Y9840D01*
X28829Y9857D01*
X28798Y9872D01*
X28767Y9884D01*
X28734Y9894D01*
X28701Y9901D01*
X28667Y9905D01*
X28632Y9906D01*
Y10160D01*
X28667Y10161D01*
X28701Y10165D01*
X28734Y10172D01*
X28767Y10182D01*
X28798Y10194D01*
X28829Y10209D01*
X28859Y10226D01*
X28887Y10247D01*
X28915Y10270D01*
X28942Y10295D01*
Y9771D01*
D02*
G37*
G36*
X27198Y8467D02*
X27170Y8444D01*
X27145Y8420D01*
X27123Y8394D01*
X27104Y8367D01*
X27088Y8338D01*
X27074Y8308D01*
X27064Y8277D01*
X27057Y8244D01*
X27052Y8210D01*
X27051Y8174D01*
X26797Y8208D01*
X26796Y8242D01*
X26792Y8276D01*
X26786Y8309D01*
X26778Y8343D01*
X26767Y8375D01*
X26754Y8407D01*
X26738Y8439D01*
X26720Y8470D01*
X26700Y8501D01*
X26677Y8532D01*
X27198Y8467D01*
D02*
G37*
G36*
X29994Y6731D02*
X29992Y6755D01*
X29984Y6777D01*
X29971Y6796D01*
X29953Y6812D01*
X29929Y6826D01*
X29901Y6838D01*
X29867Y6847D01*
X29828Y6853D01*
X29783Y6857D01*
X29734Y6858D01*
Y7112D01*
X29783Y7113D01*
X29828Y7117D01*
X29867Y7123D01*
X29901Y7132D01*
X29929Y7144D01*
X29953Y7158D01*
X29971Y7174D01*
X29984Y7193D01*
X29992Y7215D01*
X29994Y7239D01*
Y6731D01*
D02*
G37*
G36*
X11286Y6817D02*
X11263Y6789D01*
X11242Y6761D01*
X11225Y6731D01*
X11210Y6700D01*
X11198Y6669D01*
X11188Y6636D01*
X11181Y6603D01*
X11177Y6569D01*
X11176Y6534D01*
X10922D01*
X10921Y6569D01*
X10917Y6603D01*
X10910Y6636D01*
X10900Y6669D01*
X10888Y6700D01*
X10873Y6731D01*
X10856Y6761D01*
X10835Y6789D01*
X10812Y6817D01*
X10786Y6844D01*
X11311D01*
X11286Y6817D01*
D02*
G37*
G36*
X13009Y5467D02*
X13077Y5409D01*
X13112Y5383D01*
X13182Y5338D01*
X13218Y5319D01*
X13254Y5302D01*
X13290Y5287D01*
X13327Y5274D01*
X12859Y5036D01*
X12869Y5068D01*
X12874Y5100D01*
X12876Y5132D01*
X12874Y5162D01*
X12868Y5192D01*
X12858Y5222D01*
X12845Y5250D01*
X12828Y5279D01*
X12807Y5306D01*
X12783Y5333D01*
X12975Y5499D01*
X13009Y5467D01*
D02*
G37*
G36*
X21028Y3499D02*
X20990Y3458D01*
X20957Y3420D01*
X20930Y3384D01*
X20909Y3351D01*
X20894Y3320D01*
X20885Y3291D01*
X20882Y3265D01*
X20884Y3241D01*
X20893Y3220D01*
X20908Y3201D01*
X20551Y3558D01*
X20570Y3543D01*
X20591Y3535D01*
X20615Y3532D01*
X20641Y3535D01*
X20670Y3544D01*
X20701Y3559D01*
X20734Y3580D01*
X20770Y3607D01*
X20808Y3640D01*
X20849Y3679D01*
X21028Y3499D01*
D02*
G37*
G36*
X17160Y3640D02*
X17199Y3607D01*
X17234Y3580D01*
X17268Y3559D01*
X17299Y3544D01*
X17327Y3535D01*
X17354Y3532D01*
X17377Y3535D01*
X17399Y3543D01*
X17418Y3558D01*
X17060Y3201D01*
X17075Y3220D01*
X17084Y3241D01*
X17087Y3265D01*
X17084Y3291D01*
X17075Y3320D01*
X17060Y3351D01*
X17039Y3384D01*
X17012Y3420D01*
X16979Y3458D01*
X16940Y3499D01*
X17120Y3679D01*
X17160Y3640D01*
D02*
G37*
G36*
X29081Y1706D02*
X29142Y1651D01*
X29150Y1646D01*
X29156Y1643D01*
X29161Y1641D01*
X29164Y1642D01*
X29037Y1399D01*
X28884Y1543D01*
X29064Y1723D01*
X29081Y1706D01*
D02*
G37*
G36*
X4402Y1615D02*
X4433Y1596D01*
X4465Y1579D01*
X4498Y1564D01*
X4532Y1552D01*
X4567Y1542D01*
X4603Y1534D01*
X4640Y1528D01*
X4678Y1525D01*
X4717Y1524D01*
Y1270D01*
X4678Y1269D01*
X4640Y1266D01*
X4603Y1260D01*
X4567Y1252D01*
X4532Y1242D01*
X4498Y1230D01*
X4465Y1215D01*
X4433Y1198D01*
X4402Y1179D01*
X4372Y1158D01*
Y1636D01*
X4402Y1615D01*
D02*
G37*
D58*
X9518Y10160D02*
X14913D01*
X14949Y10196D01*
X6331Y13347D02*
X9518Y10160D01*
X8634Y14351D02*
X14318D01*
X2792Y20193D02*
X8634Y14351D01*
X14699Y13970D02*
X14732D01*
X14318Y14351D02*
X14699Y13970D01*
X2667Y20193D02*
X2792D01*
Y17992D02*
X6331Y14453D01*
Y13347D02*
Y14453D01*
X2667Y17992D02*
X2792D01*
D59*
X27915Y3200D02*
G03*
X27208Y3947I-1008J-246D01*
G01*
X27124Y3991D02*
G03*
X27208Y3947I159J198D01*
G01*
X6301Y4064D02*
X16555D01*
X17884Y2735D01*
X5588Y3351D02*
X6301Y4064D01*
X5588Y2159D02*
Y3351D01*
X17884Y2610D02*
Y2735D01*
X11049Y6230D02*
Y7112D01*
X12834Y5461D02*
X13088Y5207D01*
X11818Y5461D02*
X12834D01*
X11049Y6230D02*
X11818Y5461D01*
X28974Y1633D02*
Y2141D01*
X27915Y3200D02*
X28974Y2141D01*
Y1633D02*
X29337Y1270D01*
X27035Y3991D02*
X27124Y3991D01*
X21341Y3991D02*
X27035D01*
X20085Y2735D02*
X21341Y3991D01*
X20085Y2610D02*
Y2735D01*
X4191Y1397D02*
X4826D01*
X5588Y2159D01*
X27940Y6985D02*
X30988D01*
X26924Y8001D02*
X27940Y6985D01*
X26924Y8719D02*
X26970Y8765D01*
X26924Y8001D02*
Y8719D01*
X25955Y8716D02*
X26035Y8636D01*
X25955Y8853D02*
X26129Y9027D01*
Y9111D01*
X25955Y8716D02*
Y8853D01*
X26129Y9111D02*
X27051Y10033D01*
X20731Y9513D02*
Y30387D01*
X21699Y31355D01*
X23749Y17399D02*
X27559Y13589D01*
X30988D01*
X27051Y10033D02*
X29210D01*
X8168Y17018D02*
X14732D01*
X2792Y22394D02*
X8168Y17018D01*
X2667Y22394D02*
X2792D01*
D62*
X31738Y20193D02*
D03*
Y6985D02*
D03*
Y26797D02*
D03*
Y24596D02*
D03*
Y9186D02*
D03*
Y13589D02*
D03*
Y11388D02*
D03*
Y22394D02*
D03*
Y15790D02*
D03*
Y17992D02*
D03*
X1917Y15790D02*
D03*
Y17992D02*
D03*
Y11388D02*
D03*
Y22394D02*
D03*
Y20193D02*
D03*
Y24596D02*
D03*
Y9186D02*
D03*
Y6985D02*
D03*
Y26797D02*
D03*
Y13589D02*
D03*
D63*
X17884Y1860D02*
D03*
X15682D02*
D03*
X22286D02*
D03*
X11280D02*
D03*
X13481D02*
D03*
X9078D02*
D03*
X24488D02*
D03*
X26689D02*
D03*
X6877D02*
D03*
X20085D02*
D03*
D64*
X24141Y15703D02*
D03*
X4826Y12319D02*
D03*
X9546Y22606D02*
D03*
X9779Y32385D02*
D03*
X23345Y10160D02*
D03*
X23876Y22606D02*
D03*
X23622Y32385D02*
D03*
X28252Y6139D02*
D03*
X13215Y4917D02*
D03*
X26970Y8765D02*
D03*
X12700Y8001D02*
D03*
X14949Y10196D02*
D03*
X23500Y13800D02*
D03*
X25955Y8716D02*
D03*
X20731Y9513D02*
D03*
X29210Y10033D02*
D03*
X23749Y17399D02*
D03*
X11049Y7112D02*
D03*
X27420Y14969D02*
D03*
X21699Y31355D02*
D03*
X14732Y13970D02*
D03*
X6985Y7366D02*
D03*
X14732Y17018D02*
D03*
D65*
X14351Y8128D02*
D03*
X28220Y22762D02*
D03*
Y21238D02*
D03*
Y19397D02*
D03*
X29337Y6223D02*
D03*
X9738Y10922D02*
D03*
X11262D02*
D03*
X9738Y12288D02*
D03*
X11262D02*
D03*
X17739Y13589D02*
D03*
X9738Y13653D02*
D03*
X11262D02*
D03*
X9738Y15045D02*
D03*
X11262D02*
D03*
X15961Y13589D02*
D03*
X16850D02*
D03*
X13104Y15045D02*
D03*
X16787Y15019D02*
D03*
X14945D02*
D03*
X20100Y13462D02*
D03*
X21803D02*
D03*
X20100Y15019D02*
D03*
X21803D02*
D03*
X18628D02*
D03*
X5842Y5207D02*
D03*
X7112Y4699D02*
D03*
X15875Y5488D02*
D03*
X17716D02*
D03*
X19558Y5461D02*
D03*
X18479Y6758D02*
D03*
X16637D02*
D03*
X20320Y6731D02*
D03*
X15113Y6758D02*
D03*
X14351Y5488D02*
D03*
X17907Y9017D02*
D03*
X19177Y10287D02*
D03*
X8367Y8407D02*
D03*
X9891D02*
D03*
D73*
X29337Y1397D02*
D03*
X4191D02*
D03*
M02*
