G04*
G04 #@! TF.GenerationSoftware,Altium Limited,Altium Designer,21.8.1 (53)*
G04*
G04 Layer_Color=16711680*
%FSLAX43Y43*%
%MOMM*%
G71*
G04*
G04 #@! TF.SameCoordinates,52961A17-6BC2-4DDE-B822-5F8CA39096D4*
G04*
G04*
G04 #@! TF.FilePolarity,Positive*
G04*
G01*
G75*
%ADD75C,0.013*%
D75*
X30982Y3627D02*
G03*
X31111Y3144I483J-129D01*
G01*
X33530Y31626D02*
G03*
X32677Y31952I-499J-28D01*
G01*
X2584Y29903D02*
G03*
X2455Y30386I-483J129D01*
G01*
X2584Y29903D02*
G03*
X2455Y30386I-483J129D01*
G01*
X31970Y32659D02*
G03*
X31644Y33512I-354J354D01*
G01*
X30982Y3627D02*
G03*
X29921Y2566I-1449J388D01*
G01*
X3645Y2566D02*
G03*
X3162Y2437I-129J-483D01*
G01*
X32677Y1578D02*
G03*
X33530Y1904I354J354D01*
G01*
X31111Y30386D02*
G03*
X30982Y29903I354J-354D01*
G01*
X889Y31952D02*
G03*
X36Y31626I-354J-354D01*
G01*
X889Y31952D02*
G03*
X36Y31626I-354J-354D01*
G01*
X31644Y33512D02*
G03*
X31533Y33515I-111J-1997D01*
G01*
X1596Y871D02*
G03*
X1922Y18I354J-354D01*
G01*
X30982Y3627D02*
G03*
X31111Y3144I483J-129D01*
G01*
X29921Y30964D02*
G03*
X30404Y31093I129J483D01*
G01*
X2033Y33515D02*
G03*
X1922Y33512I0J-2000D01*
G01*
Y18D02*
G03*
X2033Y15I111J1997D01*
G01*
X36Y1904D02*
G03*
X889Y1578I499J28D01*
G01*
X33530Y31626D02*
G03*
X32677Y31952I-499J-28D01*
G01*
X36Y31626D02*
G03*
X33Y31515I1997J-111D01*
G01*
X31111Y30386D02*
G03*
X30982Y29903I354J-354D01*
G01*
X1596Y871D02*
G03*
X1922Y18I354J-354D01*
G01*
X32677Y1578D02*
G03*
X33530Y1904I354J354D01*
G01*
X2455Y3144D02*
G03*
X2584Y3627I-354J354D01*
G01*
X33Y2015D02*
G03*
X36Y1904I2000J0D01*
G01*
X31970Y32659D02*
G03*
X31644Y33512I-354J354D01*
G01*
X1922D02*
G03*
X1596Y32659I28J-499D01*
G01*
X31533Y15D02*
G03*
X31644Y18I0J2000D01*
G01*
X31644Y18D02*
G03*
X31970Y871I-28J499D01*
G01*
X3645Y2566D02*
G03*
X3162Y2437I-129J-483D01*
G01*
X33530Y1904D02*
G03*
X33533Y2015I-1997J111D01*
G01*
X36Y1904D02*
G03*
X889Y1578I499J28D01*
G01*
X29921Y30964D02*
G03*
X30982Y29903I-388J-1449D01*
G01*
X3162Y31093D02*
G03*
X3645Y30964I354J354D01*
G01*
X1922Y33512D02*
G03*
X1596Y32659I28J-499D01*
G01*
X31644Y18D02*
G03*
X31970Y871I-28J499D01*
G01*
X33533Y31515D02*
G03*
X33530Y31626I-2000J0D01*
G01*
X29921Y30964D02*
G03*
X30404Y31093I129J483D01*
G01*
X2584Y29903D02*
G03*
X3645Y30964I1449J-388D01*
G01*
X30404Y2437D02*
G03*
X29921Y2566I-354J-354D01*
G01*
X30404Y2437D02*
G03*
X29921Y2566I-354J-354D01*
G01*
X3645Y2566D02*
G03*
X2584Y3627I388J1449D01*
G01*
X2455Y3144D02*
G03*
X2584Y3627I-354J354D01*
G01*
X3162Y31093D02*
G03*
X3645Y30964I354J354D01*
G01*
X889Y31952D02*
X2455Y30386D01*
X2033Y15D02*
X31533D01*
X31111Y3144D02*
X32677Y1578D01*
X31111Y3144D02*
X32677Y1578D01*
X33533Y2015D02*
Y31515D01*
X33Y2015D02*
Y31515D01*
X889Y1578D02*
X2455Y3144D01*
X31111Y30386D02*
X32677Y31952D01*
X1596Y871D02*
X3162Y2437D01*
X30404Y31093D02*
X31970Y32659D01*
X1596D02*
X3162Y31093D01*
X2033Y15D02*
X31533D01*
X33Y2015D02*
Y31515D01*
X2033Y33515D02*
X31533D01*
X30404Y2437D02*
X31970Y871D01*
X1596D02*
X3162Y2437D01*
X1596Y32659D02*
X3162Y31093D01*
M02*
