G04*
G04 #@! TF.GenerationSoftware,Altium Limited,Altium Designer,21.8.1 (53)*
G04*
G04 Layer_Physical_Order=3*
G04 Layer_Color=128*
%FSLAX43Y43*%
%MOMM*%
G71*
G04*
G04 #@! TF.SameCoordinates,52961A17-6BC2-4DDE-B822-5F8CA39096D4*
G04*
G04*
G04 #@! TF.FilePolarity,Negative*
G04*
G01*
G75*
%ADD66C,1.016*%
%ADD67C,2.016*%
G04:AMPARAMS|DCode=68|XSize=2.524mm|YSize=2.524mm|CornerRadius=0mm|HoleSize=0mm|Usage=FLASHONLY|Rotation=0.000|XOffset=0mm|YOffset=0mm|HoleType=Round|Shape=Relief|Width=0.254mm|Gap=0.254mm|Entries=4|*
%AMTHD68*
7,0,0,2.524,2.016,0.254,45*
%
%ADD68THD68*%
G04:AMPARAMS|DCode=69|XSize=2.024mm|YSize=2.024mm|CornerRadius=0mm|HoleSize=0mm|Usage=FLASHONLY|Rotation=0.000|XOffset=0mm|YOffset=0mm|HoleType=Round|Shape=Relief|Width=0.254mm|Gap=0.254mm|Entries=4|*
%AMTHD69*
7,0,0,2.024,1.516,0.254,45*
%
%ADD69THD69*%
%ADD71C,1.516*%
%ADD72C,1.316*%
D66*
X1922Y18D02*
G03*
X2033Y15I111J1997D01*
G01*
X31533Y15D02*
G03*
X31644Y18I-0J2001D01*
G01*
X31644Y18D02*
G03*
X31970Y871I-28J499D01*
G01*
X30404Y2437D02*
G03*
X29921Y2566I-354J-354D01*
G01*
X30982Y3627D02*
G03*
X29921Y2566I-1449J388D01*
G01*
X30982Y3627D02*
G03*
X31111Y3144I483J-129D01*
G01*
X32677Y1578D02*
G03*
X33530Y1904I354J354D01*
G01*
X33530Y1904D02*
G03*
X33533Y2015I-1994J111D01*
G01*
Y31515D02*
G03*
X33530Y31626I-2001J-0D01*
G01*
Y31626D02*
G03*
X32677Y31952I-499J-28D01*
G01*
X31111Y30386D02*
G03*
X30982Y29903I354J-354D01*
G01*
X29921Y30964D02*
G03*
X30982Y29903I-388J-1449D01*
G01*
X29921Y30964D02*
G03*
X30404Y31093I129J483D01*
G01*
X31970Y32659D02*
G03*
X31644Y33512I-354J354D01*
G01*
X31644Y33512D02*
G03*
X31533Y33515I-111J-1997D01*
G01*
X2033D02*
G03*
X1922Y33512I0J-2001D01*
G01*
X1922D02*
G03*
X1596Y32659I28J-499D01*
G01*
X3162Y31093D02*
G03*
X3645Y30964I354J354D01*
G01*
X2584Y29903D02*
G03*
X3645Y30964I1449J-388D01*
G01*
X2584Y29903D02*
G03*
X2455Y30386I-483J129D01*
G01*
X889Y31952D02*
G03*
X36Y31626I-354J-354D01*
G01*
Y31626D02*
G03*
X33Y31515I1997J-111D01*
G01*
X33Y2015D02*
G03*
X36Y1904I2001J0D01*
G01*
Y1904D02*
G03*
X889Y1578I499J28D01*
G01*
X2455Y3144D02*
G03*
X2584Y3627I-354J354D01*
G01*
X3645Y2566D02*
G03*
X2584Y3627I388J1449D01*
G01*
X3645Y2566D02*
G03*
X3162Y2437I-129J-483D01*
G01*
X1596Y871D02*
G03*
X1922Y18I354J-354D01*
G01*
X2033Y15D02*
X31533Y15D01*
X30404Y2437D02*
X31970Y871D01*
X31111Y3144D02*
X32677Y1578D01*
X33533Y2015D02*
Y31515D01*
X31111Y30386D02*
X32677Y31952D01*
X30404Y31093D02*
X31970Y32659D01*
X2033Y33515D02*
X31533D01*
X1596Y32659D02*
X3162Y31093D01*
X889Y31952D02*
X2455Y30386D01*
X33Y2015D02*
X33Y31515D01*
X889Y1578D02*
X2455Y3144D01*
X1596Y871D02*
X3162Y2437D01*
D67*
X30988Y20193D02*
D03*
Y6985D02*
D03*
Y26797D02*
D03*
Y24596D02*
D03*
Y9186D02*
D03*
Y13589D02*
D03*
Y11388D02*
D03*
Y22394D02*
D03*
Y15790D02*
D03*
Y17992D02*
D03*
X2667Y15790D02*
D03*
Y17992D02*
D03*
Y11388D02*
D03*
Y22394D02*
D03*
Y20193D02*
D03*
Y24596D02*
D03*
Y9186D02*
D03*
Y6985D02*
D03*
Y13589D02*
D03*
X17884Y2610D02*
D03*
X22286D02*
D03*
X11280D02*
D03*
X13481D02*
D03*
X9078D02*
D03*
X24488D02*
D03*
X26689D02*
D03*
X6877D02*
D03*
X20085D02*
D03*
D68*
X2667Y26797D02*
D03*
X15682Y2610D02*
D03*
D69*
X28252Y6139D02*
D03*
X12700Y8001D02*
D03*
X23500Y13800D02*
D03*
X27420Y14969D02*
D03*
X6985Y7366D02*
D03*
D71*
X24141Y15703D02*
D03*
X4826Y12319D02*
D03*
X9546Y22606D02*
D03*
X9779Y32385D02*
D03*
X23345Y10160D02*
D03*
X23876Y22606D02*
D03*
X23622Y32385D02*
D03*
X13215Y4917D02*
D03*
X26970Y8765D02*
D03*
X14949Y10196D02*
D03*
X25955Y8716D02*
D03*
X20731Y9513D02*
D03*
X29210Y10033D02*
D03*
X23749Y17399D02*
D03*
X11049Y7112D02*
D03*
X21699Y31355D02*
D03*
X14732Y13970D02*
D03*
Y17018D02*
D03*
D72*
X14351Y8128D02*
D03*
X28220Y22762D02*
D03*
Y21238D02*
D03*
Y19397D02*
D03*
X29337Y6223D02*
D03*
X9738Y10922D02*
D03*
X11262D02*
D03*
X9738Y12288D02*
D03*
X11262D02*
D03*
X17739Y13589D02*
D03*
X9738Y13653D02*
D03*
X11262D02*
D03*
X9738Y15045D02*
D03*
X11262D02*
D03*
X15961Y13589D02*
D03*
X16850D02*
D03*
X13104Y15045D02*
D03*
X16787Y15019D02*
D03*
X14945D02*
D03*
X20100Y13462D02*
D03*
X21803D02*
D03*
X20100Y15019D02*
D03*
X21803D02*
D03*
X18628D02*
D03*
X5842Y5207D02*
D03*
X7112Y4699D02*
D03*
X15875Y5488D02*
D03*
X17716D02*
D03*
X19558Y5461D02*
D03*
X18479Y6758D02*
D03*
X16637D02*
D03*
X20320Y6731D02*
D03*
X15113Y6758D02*
D03*
X14351Y5488D02*
D03*
X17907Y9017D02*
D03*
X19177Y10287D02*
D03*
X8367Y8407D02*
D03*
X9891D02*
D03*
M02*
